<svg width="328" height="48" viewBox="0 0 328 48" fill="none" xmlns="http://www.w3.org/2000/svg">
<rect x="0.5" y="0.5" width="327" height="47" rx="11.5" stroke="#D9D9D9"/>
<path d="M18.2285 23.0254V31.8438H16.957V21.6035H18.1191L18.2285 23.0254ZM23.2119 25.2402V25.3838C23.2119 25.9215 23.1481 26.4206 23.0205 26.8809C22.8929 27.3366 22.7061 27.7331 22.46 28.0703C22.2184 28.4076 21.9199 28.6696 21.5645 28.8564C21.209 29.0433 20.8011 29.1367 20.3408 29.1367C19.8714 29.1367 19.4567 29.0592 19.0967 28.9043C18.7367 28.7493 18.4313 28.5238 18.1807 28.2275C17.93 27.9313 17.7295 27.5758 17.5791 27.1611C17.4333 26.7464 17.333 26.2793 17.2783 25.7598V24.9941C17.333 24.4473 17.4355 23.9574 17.5859 23.5244C17.7363 23.0915 17.9346 22.7223 18.1807 22.417C18.4313 22.1071 18.7344 21.8724 19.0898 21.7129C19.4453 21.5488 19.8555 21.4668 20.3203 21.4668C20.7852 21.4668 21.1976 21.5579 21.5576 21.7402C21.9176 21.918 22.2207 22.1732 22.4668 22.5059C22.7129 22.8385 22.8975 23.2373 23.0205 23.7021C23.1481 24.1624 23.2119 24.6751 23.2119 25.2402ZM21.9404 25.3838V25.2402C21.9404 24.8711 21.9017 24.5247 21.8242 24.2012C21.7467 23.873 21.626 23.5859 21.4619 23.3398C21.3024 23.0892 21.0973 22.8932 20.8467 22.752C20.596 22.6061 20.2975 22.5332 19.9512 22.5332C19.6322 22.5332 19.3542 22.5879 19.1172 22.6973C18.8848 22.8066 18.6865 22.9548 18.5225 23.1416C18.3584 23.3239 18.224 23.5335 18.1191 23.7705C18.0189 24.0029 17.9437 24.2445 17.8936 24.4951V26.2656C17.9847 26.5846 18.1123 26.8854 18.2764 27.168C18.4404 27.446 18.6592 27.6715 18.9326 27.8447C19.2061 28.0133 19.5501 28.0977 19.9648 28.0977C20.3066 28.0977 20.6006 28.027 20.8467 27.8857C21.0973 27.7399 21.3024 27.5417 21.4619 27.291C21.626 27.0404 21.7467 26.7533 21.8242 26.4297C21.9017 26.1016 21.9404 25.7529 21.9404 25.3838ZM29.1865 27.7354V23.9277C29.1865 23.6361 29.1273 23.3831 29.0088 23.1689C28.8949 22.9502 28.7217 22.7816 28.4893 22.6631C28.2568 22.5446 27.9697 22.4854 27.6279 22.4854C27.3089 22.4854 27.0286 22.54 26.7871 22.6494C26.5501 22.7588 26.3633 22.9023 26.2266 23.0801C26.0944 23.2578 26.0283 23.4492 26.0283 23.6543H24.7637C24.7637 23.39 24.832 23.1279 24.9688 22.8682C25.1055 22.6084 25.3014 22.3737 25.5566 22.1641C25.8164 21.9499 26.1263 21.7812 26.4863 21.6582C26.8509 21.5306 27.2565 21.4668 27.7031 21.4668C28.2409 21.4668 28.7148 21.5579 29.125 21.7402C29.5397 21.9225 29.8633 22.1982 30.0957 22.5674C30.3327 22.932 30.4512 23.39 30.4512 23.9414V27.3867C30.4512 27.6328 30.4717 27.8949 30.5127 28.1729C30.5583 28.4508 30.6243 28.6901 30.7109 28.8906V29H29.3916C29.3278 28.8542 29.2777 28.6605 29.2412 28.4189C29.2048 28.1729 29.1865 27.945 29.1865 27.7354ZM29.4053 24.5156L29.4189 25.4043H28.1406C27.7806 25.4043 27.4593 25.4339 27.1768 25.4932C26.8942 25.5479 26.6572 25.6322 26.4658 25.7461C26.2744 25.86 26.1286 26.0036 26.0283 26.1768C25.9281 26.3454 25.8779 26.5436 25.8779 26.7715C25.8779 27.0039 25.9303 27.2158 26.0352 27.4072C26.14 27.5986 26.2972 27.7513 26.5068 27.8652C26.721 27.9746 26.9831 28.0293 27.293 28.0293C27.6803 28.0293 28.0221 27.9473 28.3184 27.7832C28.6146 27.6191 28.8493 27.4186 29.0225 27.1816C29.2002 26.9447 29.2959 26.7145 29.3096 26.4912L29.8496 27.0996C29.8177 27.291 29.7311 27.5029 29.5898 27.7354C29.4486 27.9678 29.2594 28.1911 29.0225 28.4053C28.79 28.6149 28.512 28.7904 28.1885 28.9316C27.8695 29.0684 27.5094 29.1367 27.1084 29.1367C26.6071 29.1367 26.1673 29.0387 25.7891 28.8428C25.4154 28.6468 25.1237 28.3848 24.9141 28.0566C24.709 27.724 24.6064 27.3525 24.6064 26.9424C24.6064 26.5459 24.6839 26.1973 24.8389 25.8965C24.9938 25.5911 25.2171 25.3382 25.5088 25.1377C25.8005 24.9326 26.1514 24.7777 26.5615 24.6729C26.9717 24.568 27.4297 24.5156 27.9355 24.5156H29.4053ZM36.7471 27.0381C36.7471 26.8558 36.7061 26.6872 36.624 26.5322C36.5465 26.3727 36.3848 26.2292 36.1387 26.1016C35.8971 25.9694 35.5326 25.8555 35.0449 25.7598C34.6348 25.6732 34.2633 25.5706 33.9307 25.4521C33.6025 25.3337 33.3223 25.1901 33.0898 25.0215C32.862 24.8529 32.6865 24.6546 32.5635 24.4268C32.4404 24.1989 32.3789 23.9323 32.3789 23.627C32.3789 23.3353 32.4427 23.0596 32.5703 22.7998C32.7025 22.54 32.887 22.3099 33.124 22.1094C33.3656 21.9089 33.6549 21.7516 33.9922 21.6377C34.3294 21.5238 34.7054 21.4668 35.1201 21.4668C35.7126 21.4668 36.2184 21.5716 36.6377 21.7812C37.057 21.9909 37.3783 22.2712 37.6016 22.6221C37.8249 22.9684 37.9365 23.3535 37.9365 23.7773H36.6719C36.6719 23.5723 36.6104 23.374 36.4873 23.1826C36.3688 22.9867 36.1934 22.8249 35.9609 22.6973C35.7331 22.5697 35.4528 22.5059 35.1201 22.5059C34.7692 22.5059 34.4844 22.5605 34.2656 22.6699C34.0514 22.7747 33.8942 22.9092 33.7939 23.0732C33.6982 23.2373 33.6504 23.4105 33.6504 23.5928C33.6504 23.7295 33.6732 23.8525 33.7188 23.9619C33.7689 24.0667 33.8555 24.1647 33.9785 24.2559C34.1016 24.3424 34.2747 24.4245 34.498 24.502C34.7214 24.5794 35.0062 24.6569 35.3525 24.7344C35.9587 24.8711 36.4577 25.0352 36.8496 25.2266C37.2415 25.418 37.5332 25.6527 37.7246 25.9307C37.916 26.2087 38.0117 26.5459 38.0117 26.9424C38.0117 27.266 37.9434 27.5622 37.8066 27.8311C37.6745 28.0999 37.4808 28.3324 37.2256 28.5283C36.9749 28.7197 36.6742 28.8701 36.3232 28.9795C35.9769 29.0843 35.5872 29.1367 35.1543 29.1367C34.5026 29.1367 33.9512 29.0205 33.5 28.7881C33.0488 28.5557 32.707 28.2549 32.4746 27.8857C32.2422 27.5166 32.126 27.127 32.126 26.7168H33.3975C33.4157 27.0632 33.516 27.3389 33.6982 27.5439C33.8805 27.7445 34.1038 27.888 34.3682 27.9746C34.6325 28.0566 34.8945 28.0977 35.1543 28.0977C35.5007 28.0977 35.79 28.0521 36.0225 27.9609C36.2594 27.8698 36.4395 27.7445 36.5625 27.585C36.6855 27.4255 36.7471 27.2432 36.7471 27.0381ZM43.9795 27.0381C43.9795 26.8558 43.9385 26.6872 43.8564 26.5322C43.779 26.3727 43.6172 26.2292 43.3711 26.1016C43.1296 25.9694 42.765 25.8555 42.2773 25.7598C41.8672 25.6732 41.4958 25.5706 41.1631 25.4521C40.835 25.3337 40.5547 25.1901 40.3223 25.0215C40.0944 24.8529 39.9189 24.6546 39.7959 24.4268C39.6729 24.1989 39.6113 23.9323 39.6113 23.627C39.6113 23.3353 39.6751 23.0596 39.8027 22.7998C39.9349 22.54 40.1195 22.3099 40.3564 22.1094C40.598 21.9089 40.8874 21.7516 41.2246 21.6377C41.5618 21.5238 41.9378 21.4668 42.3525 21.4668C42.945 21.4668 43.4508 21.5716 43.8701 21.7812C44.2894 21.9909 44.6107 22.2712 44.834 22.6221C45.0573 22.9684 45.1689 23.3535 45.1689 23.7773H43.9043C43.9043 23.5723 43.8428 23.374 43.7197 23.1826C43.6012 22.9867 43.4258 22.8249 43.1934 22.6973C42.9655 22.5697 42.6852 22.5059 42.3525 22.5059C42.0016 22.5059 41.7168 22.5605 41.498 22.6699C41.2839 22.7747 41.1266 22.9092 41.0264 23.0732C40.9307 23.2373 40.8828 23.4105 40.8828 23.5928C40.8828 23.7295 40.9056 23.8525 40.9512 23.9619C41.0013 24.0667 41.0879 24.1647 41.2109 24.2559C41.334 24.3424 41.5072 24.4245 41.7305 24.502C41.9538 24.5794 42.2386 24.6569 42.585 24.7344C43.1911 24.8711 43.6901 25.0352 44.082 25.2266C44.474 25.418 44.7656 25.6527 44.957 25.9307C45.1484 26.2087 45.2441 26.5459 45.2441 26.9424C45.2441 27.266 45.1758 27.5622 45.0391 27.8311C44.9069 28.0999 44.7132 28.3324 44.458 28.5283C44.2074 28.7197 43.9066 28.8701 43.5557 28.9795C43.2093 29.0843 42.8197 29.1367 42.3867 29.1367C41.735 29.1367 41.1836 29.0205 40.7324 28.7881C40.2812 28.5557 39.9395 28.2549 39.707 27.8857C39.4746 27.5166 39.3584 27.127 39.3584 26.7168H40.6299C40.6481 27.0632 40.7484 27.3389 40.9307 27.5439C41.113 27.7445 41.3363 27.888 41.6006 27.9746C41.8649 28.0566 42.127 28.0977 42.3867 28.0977C42.7331 28.0977 43.0225 28.0521 43.2549 27.9609C43.4919 27.8698 43.6719 27.7445 43.7949 27.585C43.918 27.4255 43.9795 27.2432 43.9795 27.0381ZM48.7783 27.6875L50.6787 21.6035H51.5127L51.3486 22.8135L49.4141 29H48.6006L48.7783 27.6875ZM47.5 21.6035L49.1201 27.7559L49.2363 29H48.3818L46.2354 21.6035H47.5ZM53.3311 27.708L54.876 21.6035H56.1338L53.9873 29H53.1396L53.3311 27.708ZM51.6973 21.6035L53.5566 27.585L53.7686 29H52.9619L50.9727 22.7998L50.8086 21.6035H51.6973ZM57.0977 25.3838V25.2266C57.0977 24.6934 57.1751 24.1989 57.3301 23.7432C57.485 23.2829 57.7083 22.8841 58 22.5469C58.2917 22.2051 58.6449 21.9408 59.0596 21.7539C59.4743 21.5625 59.9391 21.4668 60.4541 21.4668C60.9736 21.4668 61.4408 21.5625 61.8555 21.7539C62.2747 21.9408 62.6302 22.2051 62.9219 22.5469C63.2181 22.8841 63.4437 23.2829 63.5986 23.7432C63.7536 24.1989 63.8311 24.6934 63.8311 25.2266V25.3838C63.8311 25.917 63.7536 26.4115 63.5986 26.8672C63.4437 27.3229 63.2181 27.7217 62.9219 28.0635C62.6302 28.4007 62.277 28.665 61.8623 28.8564C61.4521 29.0433 60.9873 29.1367 60.4678 29.1367C59.9482 29.1367 59.4811 29.0433 59.0664 28.8564C58.6517 28.665 58.2962 28.4007 58 28.0635C57.7083 27.7217 57.485 27.3229 57.3301 26.8672C57.1751 26.4115 57.0977 25.917 57.0977 25.3838ZM58.3623 25.2266V25.3838C58.3623 25.7529 58.4056 26.1016 58.4922 26.4297C58.5788 26.7533 58.7087 27.0404 58.8818 27.291C59.0596 27.5417 59.2806 27.7399 59.5449 27.8857C59.8092 28.027 60.1169 28.0977 60.4678 28.0977C60.8141 28.0977 61.1172 28.027 61.377 27.8857C61.6413 27.7399 61.86 27.5417 62.0332 27.291C62.2064 27.0404 62.3363 26.7533 62.4229 26.4297C62.514 26.1016 62.5596 25.7529 62.5596 25.3838V25.2266C62.5596 24.862 62.514 24.5179 62.4229 24.1943C62.3363 23.8662 62.2041 23.5768 62.0264 23.3262C61.8532 23.071 61.6344 22.8704 61.3701 22.7246C61.1104 22.5788 60.805 22.5059 60.4541 22.5059C60.1077 22.5059 59.8024 22.5788 59.5381 22.7246C59.2783 22.8704 59.0596 23.071 58.8818 23.3262C58.7087 23.5768 58.5788 23.8662 58.4922 24.1943C58.4056 24.5179 58.3623 24.862 58.3623 25.2266ZM66.6816 22.7656V29H65.417V21.6035H66.6475L66.6816 22.7656ZM68.9922 21.5625L68.9854 22.7383C68.8805 22.7155 68.7803 22.7018 68.6846 22.6973C68.5934 22.6882 68.4886 22.6836 68.3701 22.6836C68.0785 22.6836 67.821 22.7292 67.5977 22.8203C67.3743 22.9115 67.1852 23.0391 67.0303 23.2031C66.8753 23.3672 66.7523 23.5632 66.6611 23.791C66.5745 24.0143 66.5176 24.2604 66.4902 24.5293L66.1348 24.7344C66.1348 24.2878 66.1781 23.8685 66.2646 23.4766C66.3558 23.0846 66.4948 22.7383 66.6816 22.4375C66.8685 22.1322 67.1055 21.8952 67.3926 21.7266C67.6842 21.5534 68.0306 21.4668 68.4316 21.4668C68.5228 21.4668 68.6276 21.4782 68.7461 21.501C68.8646 21.5192 68.9466 21.5397 68.9922 21.5625ZM74.6865 27.5645V18.5H75.958V29H74.7959L74.6865 27.5645ZM69.71 25.3838V25.2402C69.71 24.6751 69.7783 24.1624 69.915 23.7021C70.0563 23.2373 70.2546 22.8385 70.5098 22.5059C70.7695 22.1732 71.0771 21.918 71.4326 21.7402C71.7926 21.5579 72.1937 21.4668 72.6357 21.4668C73.1006 21.4668 73.5062 21.5488 73.8525 21.7129C74.2035 21.8724 74.4997 22.1071 74.7412 22.417C74.9873 22.7223 75.181 23.0915 75.3223 23.5244C75.4635 23.9574 75.5615 24.4473 75.6162 24.9941V25.623C75.5661 26.1654 75.4681 26.653 75.3223 27.0859C75.181 27.5189 74.9873 27.888 74.7412 28.1934C74.4997 28.4987 74.2035 28.7334 73.8525 28.8975C73.5016 29.057 73.0915 29.1367 72.6221 29.1367C72.1891 29.1367 71.7926 29.0433 71.4326 28.8564C71.0771 28.6696 70.7695 28.4076 70.5098 28.0703C70.2546 27.7331 70.0563 27.3366 69.915 26.8809C69.7783 26.4206 69.71 25.9215 69.71 25.3838ZM70.9814 25.2402V25.3838C70.9814 25.7529 71.0179 26.0993 71.0908 26.4229C71.1683 26.7464 71.2868 27.0312 71.4463 27.2773C71.6058 27.5234 71.8086 27.7171 72.0547 27.8584C72.3008 27.9951 72.5947 28.0635 72.9365 28.0635C73.3558 28.0635 73.6999 27.9746 73.9688 27.7969C74.2422 27.6191 74.4609 27.3844 74.625 27.0928C74.7891 26.8011 74.9167 26.4844 75.0078 26.1426V24.4951C74.9531 24.2445 74.8734 24.0029 74.7686 23.7705C74.6683 23.5335 74.5361 23.3239 74.3721 23.1416C74.2126 22.9548 74.0143 22.8066 73.7773 22.6973C73.5449 22.5879 73.2692 22.5332 72.9502 22.5332C72.6038 22.5332 72.3053 22.6061 72.0547 22.752C71.8086 22.8932 71.6058 23.0892 71.4463 23.3398C71.2868 23.5859 71.1683 23.873 71.0908 24.2012C71.0179 24.5247 70.9814 24.8711 70.9814 25.2402Z" fill="#D9D9D9"/>
<path d="M300 21C300.796 21 301.559 21.3161 302.121 21.8787C302.684 22.4413 303 23.2044 303 24C303 24.7956 302.684 25.5587 302.121 26.1213C301.559 26.6839 300.796 27 300 27C299.204 27 298.441 26.6839 297.879 26.1213C297.316 25.5587 297 24.7956 297 24C297 23.2044 297.316 22.4413 297.879 21.8787C298.441 21.3161 299.204 21 300 21ZM300 16.5C305 16.5 309.27 19.61 311 24C309.27 28.39 305 31.5 300 31.5C295 31.5 290.73 28.39 289 24C290.73 19.61 295 16.5 300 16.5ZM291.18 24C291.988 25.6503 293.243 27.0407 294.802 28.0133C296.362 28.9858 298.162 29.5013 300 29.5013C301.838 29.5013 303.638 28.9858 305.198 28.0133C306.757 27.0407 308.012 25.6503 308.82 24C308.012 22.3497 306.757 20.9593 305.198 19.9867C303.638 19.0142 301.838 18.4987 300 18.4987C298.162 18.4987 296.362 19.0142 294.802 19.9867C293.243 20.9593 291.988 22.3497 291.18 24Z" fill="#D9D9D9"/>
</svg>
